# xmcd
# 
# Track frame offsets:
#     150
#     14066
#     32752
#     46549
#     61939
#     76914
#     89777
#     110835
#     127638
#     140608
#     152435
#     168492
# 
# Disc length: 2419
# 
# Revision: 1
# Processed by: cddbd v1.5.2PL0 Copyright (c) Steve Scherf et al.
# Submitted via: BonkEnc v1.0.8
# 
DISCID=9509710c
DTITLE=Milionário and José Rico - VOL 15 - Minha Prece
DYEAR=1985
DGENRE=Sertanejo
TTITLE0=MINHA PRECE
TTITLE1=ETERNO APAIXONADO
TTITLE2=NOSSO ROMANCE
TTITLE3=MEU CAMINHO
TTITLE4=PAIXÃO DA MINHA VIDA
TTITLE5=FECHEI MEU CORAÇÃO PARA BALANÇO
TTITLE6=MINHA CASA
TTITLE7=TUDO BEM
TTITLE8=MANÉ NO FORRÓ
TTITLE9=SUBLIME ESPERANÇA
TTITLE10=CAVALO DE AÇO
TTITLE11=MINHA DECISÃO
EXTD=
EXTT0=
EXTT1=
EXTT2=
EXTT3=
EXTT4=
EXTT5=
EXTT6=
EXTT7=
EXTT8=
EXTT9=
EXTT10=
EXTT11=
PLAYORDER=
